# xmcd CD database file
#
# Track frame offsets:
#	150
#	12207
#	24682
#	37910
#	47965
#	59882
#	73002
#	84827
#	95977
#	108122
#	120815
#	131687
#	143920
#	157225
#	170485
#	180485
#	192100
#	203115
#	214727
#	226832
#	238892
#	249490
#	260997
#	273892
#	285125
#	298462
#
# Disc length: 4140 seconds
#
# Revision: 2
# Processed by: cddbd v1.5PL3 Copyright (c) Steve Scherf et al.
# Submitted via: CDex 1.51
#
DISCID=84102a1a
DTITLE=Various Artist - Daffan Records Story, The, #1
DYEAR=1995
DGENRE=Country
TTITLE0=Jerry Jerico - These Hands
TTITLE1=Jerry Jerico - Walk My Way
TTITLE2=Jerry Irby - Tangled Mind
TTITLE3=Jerry Irby - Bottom of the List
TTITLE4=Floyd Tillman - Heartaches for Gold
TTITLE5=Floyd Tillman - Running Away
TTITLE6=Jerry Jerico - Always Lend a Helping Hand
TTITLE7=Jerry Jerico - I'm Getting More Than My Shape
TTITLE8=Dickie McBride - Our Daily Bread
TTITLE9=Dickie McBride - Silent Partners
TTITLE10=Jerry Irby - Call for Me Darling
TTITLE11=Jerry Irby - It's Time You Started Looking
TTITLE12=Laura Lee McBride - How Foolish Can Women Be
TTITLE13=Laura Lee McBride - I Want My Man
TTITLE14=Jerry Irby - Clickety Clack
TTITLE15=Jerry Irby - A Man Is a Slave
TTITLE16=Jerry Jerico - The Rich and the Poor
TTITLE17=Jerry Jerico - Which Way Are You Going?
TTITLE18=Jerry Jerico - Be Kind to a Man
TTITLE19=Jerry Jerico - So Ashamed
TTITLE20=Jerry Irby - That's Too Bad
TTITLE21=Jerry Irby - I'd Give You Anything in This World
TTITLE22=Jerry Jerico - The Waltz That You Saved for Me
TTITLE23=Jerry Jerico - I'm Getting More Than My Share [alternate take]
TTITLE24=Floyd Tillman - Floyd's Song
TTITLE25=Floyd Tillman - Cold, Cold Beer
EXTD=Volume 1 of a 2-CD set. YEAR: 1995
EXTT0=
EXTT1=
EXTT2=
EXTT3=
EXTT4=
EXTT5=
EXTT6=
EXTT7=
EXTT8=
EXTT9=
EXTT10=
EXTT11=
EXTT12=
EXTT13=
EXTT14=
EXTT15=
EXTT16=
EXTT17=
EXTT18=
EXTT19=
EXTT20=
EXTT21=
EXTT22=
EXTT23=
EXTT24=
EXTT25=
PLAYORDER=
